# xmcd
#
# Track frame offsets:
#	150
#	25155
#	61115
#	96554
#	116716
#	138621
#	160924
#	177422
#	201312
#
# Disc length: 3163 seconds
#
# Revision: 1
# Processed by: cddbd v1.5.2PL0 Copyright (c) Steve Scherf et al.
# Submitted via: audiograbber 1.83.01
#
DISCID=820c5909
DTITLE=Walter Hoton - Live At Knickerbocker
DYEAR=1900
DGENRE=Blues
TTITLE0=I Cry For You
TTITLE1=Walter's Swing
TTITLE2=What's On Your Worried Mind
TTITLE3=Two Old Maids
TTITLE4=It's Not Easy
TTITLE5=Little Boy Blue
TTITLE6=Walter's Shuffle
TTITLE7=Country Girl
TTITLE8=Lord Knows I Tried
EXTD=
EXTT0=
EXTT1=
EXTT2=
EXTT3=
EXTT4=
EXTT5=
EXTT6=
EXTT7=
EXTT8=
PLAYORDER=
